<?xml version="1.0" standalone="no"?>
<!DOCTYPE svg PUBLIC "-//W3C//DTD SVG 20010904//EN"
 "http://www.w3.org/TR/2001/REC-SVG-20010904/DTD/svg10.dtd">
<svg version="1.0" xmlns="http://www.w3.org/2000/svg"
 width="513.000000pt" height="305.000000pt" viewBox="0 0 513.000000 305.000000"
 preserveAspectRatio="xMidYMid meet">

<g transform="translate(0.000000,305.000000) scale(0.100000,-0.100000)"
fill="#000000" stroke="none">
<path d="M222 3026 c-193 -63 -272 -286 -159 -451 27 -40 2248 -2436 2307
-2489 62 -56 122 -80 200 -80 95 1 150 28 242 122 41 42 567 608 1168 1257
860 928 1098 1191 1117 1232 33 71 39 137 19 204 -31 109 -104 177 -219 205
-62 16 -72 16 -133 1 -40 -10 -84 -30 -110 -49 -25 -18 -502 -526 -1061 -1128
-559 -602 -1020 -1095 -1024 -1095 -4 0 -471 500 -1038 1110 -797 858 -1043
1117 -1082 1139 -61 35 -159 44 -227 22z"/>
</g>
</svg>
